<?xml version="1.0" encoding="UTF-8"?>
<svg id="Capa_2" xmlns="http://www.w3.org/2000/svg" viewBox="0 0 792.35 199.82">
  <defs>
    <style>
      .cls-1 {
        fill: #fff;
      }

      .cls-2 {
        fill: #2e3192;
      }

      .cls-3 {
        fill: #ff7e00;
      }
    </style>
  </defs>
  <g id="Capa_1-2" data-name="Capa_1">
    <g>
      <path class="cls-2" d="M234.85,148.99c0,6.13-4.96,11.09-11.1,11.09s-11.1-4.96-11.1-11.09v-1.02c-5.4,7.3-12.85,12.7-24.38,12.7-18.25,0-35.62-14.31-35.62-40.44v-.29c0-26.13,17.08-40.44,35.62-40.44,11.83,0,19.12,5.4,24.38,11.68v-28.32c0-6.13,4.96-11.09,11.1-11.09s11.1,4.96,11.1,11.09v86.14ZM174.85,119.94v.29c0,12.99,8.76,21.61,19.12,21.61s18.98-8.61,18.98-21.61v-.29c0-12.99-8.61-21.61-18.98-21.61s-19.12,8.47-19.12,21.61Z"/>
      <path class="cls-2" d="M245.07,120.52v-.29c0-22.48,18.1-40.73,42.48-40.73s42.19,17.96,42.19,40.44v.29c0,22.48-18.1,40.73-42.48,40.73s-42.19-17.96-42.19-40.44ZM307.84,120.52v-.29c0-11.53-8.32-21.61-20.59-21.61s-20.29,9.78-20.29,21.31v.29c0,11.53,8.32,21.61,20.59,21.61s20.29-9.78,20.29-21.32Z"/>
      <path class="cls-2" d="M339.95,91.17c0-6.13,4.96-11.09,11.1-11.09s11.1,4.96,11.1,11.09v.88c5.11-6.57,11.68-12.56,22.92-12.56,16.79,0,26.57,11.09,26.57,29.05v40.44c0,6.13-4.96,11.09-11.1,11.09s-11.1-4.96-11.1-11.09v-33.43c0-10.51-4.96-15.91-13.43-15.91s-13.87,5.4-13.87,15.91v33.43c0,6.13-4.96,11.09-11.1,11.09s-11.1-4.96-11.1-11.09v-57.81Z"/>
      <path class="cls-2" d="M420.39,136.72v-.29c0-17.08,12.99-24.96,31.53-24.96,7.88,0,13.58,1.31,19.12,3.21v-1.31c0-9.2-5.69-14.31-16.79-14.31-6.13,0-11.1.88-15.33,2.19-1.31.44-2.19.58-3.21.58-5.11,0-9.2-3.94-9.2-9.05,0-3.94,2.48-7.3,5.99-8.61,7.01-2.63,14.6-4.09,24.96-4.09,12.12,0,20.88,3.21,26.42,8.76,5.84,5.84,8.47,14.45,8.47,24.96v35.62c0,5.99-4.82,10.66-10.8,10.66-6.42,0-10.66-4.53-10.66-9.2v-.15c-5.4,5.99-12.85,9.93-23.65,9.93-14.75,0-26.86-8.47-26.86-23.94ZM471.34,131.62v-3.94c-3.8-1.75-8.76-2.92-14.16-2.92-9.49,0-15.33,3.79-15.33,10.8v.29c0,5.99,4.96,9.49,12.12,9.49,10.37,0,17.37-5.69,17.37-13.72ZM452.51,69.42c0-1.31.73-2.77,1.46-3.94l8.03-12.56c1.9-3.07,4.67-4.96,8.32-4.96,5.4,0,12.41,3.36,12.41,6.72,0,2.04-1.17,3.65-2.92,5.26l-9.05,8.47c-4.23,3.94-7.74,4.82-12.7,4.82-3.21,0-5.55-1.46-5.55-3.8Z"/>
      <path class="cls-3" d="M503.6,121.83v-.29c0-21.32,16.64-39.42,38.69-39.42,12.56,0,21.02,4.82,27.74,10.95.88.73,1.75,2.19,1.75,3.94,0,3.07-2.48,5.4-5.4,5.4-1.46,0-2.77-.58-3.65-1.31-5.4-4.96-11.53-9.05-20.59-9.05-15.33,0-27.01,12.99-27.01,29.2v.29c0,16.35,11.97,29.34,27.74,29.34,8.61,0,15.48-3.94,21.02-9.2.73-.73,1.75-1.46,3.21-1.46,2.77,0,5.11,2.48,5.11,5.11,0,1.31-.58,2.63-1.46,3.5-7.15,7.15-15.77,12.12-28.47,12.12-22.05,0-38.69-17.96-38.69-39.13Z"/>
      <path class="cls-3" d="M586.81,57.6c0-3.07,2.48-5.69,5.55-5.69s5.69,2.63,5.69,5.69v96.65c0,3.21-2.34,5.69-5.55,5.69s-5.69-2.48-5.69-5.69V57.6Z"/>
      <path class="cls-3" d="M618.34,60.08c0-3.65,2.92-5.98,6.57-5.98s6.72,2.34,6.72,5.98v1.9c0,3.5-2.92,5.99-6.72,5.99s-6.57-2.48-6.57-5.99v-1.9ZM619.37,88.69c0-3.07,2.48-5.69,5.55-5.69s5.69,2.48,5.69,5.69v65.55c0,3.21-2.34,5.69-5.55,5.69s-5.69-2.48-5.69-5.69v-65.55Z"/>
      <path class="cls-3" d="M646.22,121.83v-.29c0-21.32,16.64-39.42,38.69-39.42,12.56,0,21.02,4.82,27.74,10.95.88.73,1.75,2.19,1.75,3.94,0,3.07-2.48,5.4-5.4,5.4-1.46,0-2.77-.58-3.65-1.31-5.4-4.96-11.53-9.05-20.59-9.05-15.33,0-27.01,12.99-27.01,29.2v.29c0,16.35,11.97,29.34,27.74,29.34,8.61,0,15.48-3.94,21.02-9.2.73-.73,1.75-1.46,3.21-1.46,2.77,0,5.11,2.48,5.11,5.11,0,1.31-.58,2.63-1.46,3.5-7.15,7.15-15.77,12.12-28.47,12.12-22.05,0-38.69-17.96-38.69-39.13Z"/>
      <path class="cls-3" d="M729.14,57.6c0-3.07,2.48-5.69,5.55-5.69s5.69,2.63,5.69,5.69v69.2l40.88-41.61c1.31-1.46,2.63-2.19,4.38-2.19,3.07,0,5.11,2.48,5.11,5.26,0,1.75-.73,2.92-2.19,4.38l-24.67,24.23,27.01,34.02c1.02,1.31,1.46,2.34,1.46,3.8,0,3.07-2.34,5.26-5.4,5.26-2.04,0-3.36-.73-4.82-2.63l-26.13-32.99-15.62,15.47v14.45c0,3.21-2.34,5.69-5.55,5.69s-5.69-2.48-5.69-5.69V57.6Z"/>
      <path class="cls-2" d="M116.37,145.23c-1.16-5.31-4.91-9.67-10.04-11.66l-.73-.29c2.91-4.47,3.63-9.94,1.89-14.78-1.75-4.88-5.77-8.56-11.07-10.18,1.61-4.56,1.47-9.04-.43-13.01-1.82-3.81-5.17-6.83-9.3-8.4.23-.25.46-.49.69-.72,1.52-1.52,3.04-3.02,4.57-4.53,3.26-3.21,6.63-6.53,9.82-9.91,4.07-4.3,5.48-10.19,3.78-15.75-1.7-5.55-6.15-9.62-11.91-10.9-5.75-1.28-10.92.33-15.36,4.78-3.6,3.61-7.21,7.21-10.83,10.81-3.33,3.31-6.65,6.63-9.97,9.95-.86.87-1.69,1.77-2.56,2.73-.18.2-.37.41-.56.62-.15-.54-.29-1.06-.43-1.57-.48-1.74-.93-3.39-1.47-4.99-1.94-5.81-5.08-11.18-9.34-15.96-4.22-4.74-10.81-6.45-16.77-4.35-6.26,2.2-10.54,7.75-10.88,14.14-.28,5.1-.23,9.97,3.38,13.57,4.66,4.65,5.82,10.41,7.05,16.5.16.78.32,1.56.48,2.35,1.16,5.46-.11,9.16-4.23,12.38-2.82,2.21-5.33,4.88-7.75,7.47-.77.82-1.54,1.65-2.32,2.45-16.08,16.66-16.13,42.81-.11,59.53,3.94,4.11,8.06,8.24,12.26,12.25,8.4,8.04,19.19,12.06,29.95,12.06,10.57,0,21.11-3.89,29.34-11.67,9.96-9.43,19.71-19.34,28.76-28.64,3.74-3.84,5.23-9.05,4.09-14.28ZM24.32,62.34c.23-3.23,2-5.68,4.85-6.73.83-.31,1.64-.46,2.43-.46,1.89,0,3.64.87,5.15,2.6,4.7,5.37,7.67,11.75,9.09,19.52.63,3.45-.09,5.65-2.49,7.58-1.89,1.52-3.6,3.31-5.25,5.04-.75.78-1.49,1.56-2.26,2.33-.18.18-.36.35-.56.53-.12-.62-.23-1.24-.34-1.85-.4-2.15-.77-4.18-1.27-6.22-1.08-4.44-2.3-9.47-5.93-13.11-2.63-2.63-3.69-5.48-3.42-9.23ZM60.15,100.7l-.24.24c-.45.44-.92.9-1.28,1.45-1.1,1.66-1.07,3.46.09,5.08,1.13,1.58,2.83,2.19,4.65,1.66.85-.24,1.73-.81,2.63-1.68,1.74-1.69,3.45-3.41,5.16-5.12,1.73-1.73,3.46-3.46,5.21-5.16,2.21-2.16,4.79-2.7,7.67-1.62,2.71,1.02,4.22,3.05,4.5,6.02.21,2.22-.57,4.17-2.39,5.96-4.36,4.31-8.7,8.65-13.02,13-1.94,1.95-2.21,4.19-.75,6.15.78,1.04,1.89,1.66,3.13,1.76,1.36.11,2.7-.42,3.78-1.47,1.25-1.22,2.48-2.46,3.72-3.7,1.44-1.44,2.87-2.89,4.34-4.3,2.15-2.07,4.63-2.64,7.35-1.7,2.62.9,4.21,2.76,4.71,5.52.44,2.42-.29,4.53-2.23,6.48l-2.93,2.91c-2.52,2.51-5.04,5.01-7.53,7.54-1.98,2.01-2.11,4.61-.31,6.48,1.81,1.88,4.54,1.8,6.64-.2.43-.41.84-.82,1.26-1.24.35-.35.7-.7,1.05-1.05,3.08-2.98,7.39-3.07,10.26-.22,1.39,1.39,2.15,3.17,2.12,5.03-.02,1.88-.85,3.73-2.32,5.21l-2.89,2.9c-8.14,8.18-16.56,16.63-24.97,24.81-6.2,6.03-14.07,9.19-23.38,9.39-9.49-.16-17.65-3.52-24.25-9.98-2.51-2.46-4.99-4.94-7.47-7.43l-2.61-2.62c-7.07-7.07-10.96-15.95-10.96-25.02,0-9.07,3.88-17.95,10.95-25.01,12.33-12.32,24.68-24.63,37.02-36.95l16.61-16.56c3.74-3.72,7.48-7.44,11.2-11.18,1.66-1.67,3.43-2.5,5.37-2.5.67,0,1.35.1,2.06.29,2.5.69,4.29,2.45,4.92,4.84.67,2.55-.14,5.29-2.17,7.33-7.6,7.61-15.22,15.2-22.84,22.8l-11.87,11.84Z"/>
      <g>
        <path class="cls-3" d="M60.45,8.22s.01-.02.02-.03v-.06s.01.02.02.03c0,0,.01-.02.02-.03v.06s.01.02.02.03c6.18-13.58,26.87-9.29,26.92,5.86,0,2.25-.57,4.34-1.48,6.37-.99,2.19-2.37,4.19-3.94,6.01l-1.11,1.29c-3.2,3.7-6.68,7.15-10.41,10.31l-9.53,8.07c-.15.15-.34.2-.54.18h0s-.01,0-.02,0c0,0-.01,0-.02,0h0c-.19.01-.39-.04-.54-.18l-9.5-8.11c-3.72-3.17-7.19-6.64-10.37-10.35l-1.11-1.29c-1.57-1.83-2.93-3.83-3.91-6.03-.91-2.04-1.47-4.13-1.46-6.38.11-15.15,20.82-19.36,26.95-5.76Z"/>
        <path class="cls-1" d="M40.11,10.53c1.26-1.83,2.8-3.46,4.52-4.88.92-.76.11-2.27-1.02-1.88-3.91,1.33-6.47,5.37-6.82,8.89-.13,1.28.07,2.53.53,3.73.54-1.96,1.46-3.94,2.8-5.86Z"/>
      </g>
    </g>
  </g>
</svg>